<svg width="1280" height="720" xmlns="http://www.w3.org/2000/svg" xmlns:xlink="http://www.w3.org/1999/xlink" overflow="hidden"><defs><clipPath id="clip0"><rect x="0" y="0" width="1280" height="720"/></clipPath><clipPath id="clip1"><rect x="280" y="0" width="720" height="720"/></clipPath><clipPath id="clip2"><rect x="280" y="0" width="720" height="720"/></clipPath><clipPath id="clip3"><rect x="280" y="0" width="720" height="720"/></clipPath><clipPath id="clip4"><rect x="288" y="10" width="719" height="720"/></clipPath><clipPath id="clip5"><rect x="288" y="10" width="719" height="720"/></clipPath><clipPath id="clip6"><rect x="288" y="10" width="719" height="720"/></clipPath></defs><g clip-path="url(#clip0)"><rect x="0" y="0" width="1280" height="720" fill-opacity="0" fill="#FFFFFF"/><g clip-path="url(#clip1)"><g clip-path="url(#clip2)"><g clip-path="url(#clip3)"><path d="M640 75C482.5 75 355 202.5 355 360 355 517.5 482.5 645 640 645 797.5 645 925 517.5 925 360 925 202.5 797.5 75 640 75ZM385 360C385 293.25 410.5 233.25 452.5 187.5 459.25 191.25 466 197.25 467.5 202.5L467.5 249.75C467.5 252.75 468.25 256.5 470.5 258.75L520 322.5 523.75 318.75C526 316.5 526.75 312.75 525.25 309.75L516.25 294.75C512.5 288.75 518.5 281.25 525.25 283.5 527.5 284.25 529 285.75 529.75 287.25L554.5 336C557.5 341.25 562 345.75 567.25 347.25L600.25 358.5C602.5 359.25 604 360.75 604.75 362.25L607 366C609.25 371.25 614.5 374.25 620.5 374.25L629.5 374.25C631.75 374.25 634 375.75 635.5 377.25L645.25 391.5C647.5 394.5 650.5 396.75 654.25 397.5L670 401.25C674.5 402 676.75 407.25 675.25 411 675.25 411 663.25 423 663.25 440.25 663.25 489.75 708.25 504 708.25 515.25 708.25 546 703.75 588.75 701.5 605.25 682 609.75 661.75 612.75 640.75 612.75 499.75 615 385 500.25 385 360ZM736 596.25C752.5 582 780.25 558 790 547.5 802.75 533.25 805 510 805 510 805 510 857.5 495.75 857.5 457.5 857.5 431.25 805 420 805 420 796 390.75 751.75 375 715 375 706.75 375 677.5 390 677.5 390L662.5 382.5 662.5 360C662.5 355.5 659.5 352.5 655 352.5L640 352.5 640 330C640 325.5 637 322.5 632.5 322.5L625 322.5 616.75 327.75C609.25 333 598.75 330 595 321.75 595 321.75 587.5 311.25 587.5 306.75 587.5 274.5 625 276.75 625 276.75L641.5 276.75C645.25 276.75 648.25 279 649 282.75L653.5 301.5C654.25 304.5 657.25 307.5 661 307.5L664 307.5C667.75 307.5 670.75 305.25 671.5 301.5L676.75 273.75C677.5 271.5 678.25 269.25 679.75 267L700.75 240.75C705.25 235.5 711.25 232.5 718 232.5L737.5 232.5C742 232.5 745 229.5 745 225L745 217.5 742.75 215.25C738.25 210.75 741.25 202.5 748 202.5L752.5 202.5C757 202.5 760 205.5 760 210 760 214.5 763 217.5 767.5 217.5L775 217.5 779.5 198C781 191.25 778 185.25 772.75 181.5L709 143.25C708.25 142.5 706.75 142.5 705.25 142.5L692.5 142.5C684.25 142.5 677.5 149.25 677.5 157.5L677.5 165C677.5 169.5 674.5 172.5 670 172.5L662.5 172.5 655 165 632.5 165C628 165 625 162 625 157.5L625 138.75C625 136.5 625.75 134.25 628 132.75L676 112.5 683.5 125.25C685 126.75 686.5 127.5 688.75 127.5L707.5 127.5C712 127.5 715 124.5 715 120L715 116.25C819.25 148.5 895 245.25 895 360 895 466.5 829 558 736 596.25Z" fill="#D6DCE5"/><path d="M732.25 328.5 696.25 316.5C693.25 315.75 691 315.75 688 316.5L662.5 322.5C660.25 324 659.5 327 662.5 330L697 330C699.25 330 700.75 330 702.25 330.75L728.5 341.25C733 342.75 737.5 339.75 737.5 335.25 737.5 332.25 735.25 329.25 732.25 328.5Z" fill="#D6DCE5"/></g></g></g><g clip-path="url(#clip4)"><g clip-path="url(#clip5)"><g clip-path="url(#clip6)"><path d="M359.5 74.8958C202.219 74.8958 74.8958 202.219 74.8958 359.5 74.8958 516.781 202.219 644.104 359.5 644.104 516.781 644.104 644.104 516.781 644.104 359.5 644.104 202.219 516.781 74.8958 359.5 74.8958ZM104.854 359.5C104.854 292.843 130.319 232.926 172.26 187.24 179.001 190.984 185.742 196.976 187.24 202.219L187.24 249.403C187.24 252.399 187.989 256.144 190.235 258.391L239.667 322.052 243.411 318.307C245.658 316.06 246.407 312.316 244.909 309.32L235.922 294.341C232.177 288.349 238.169 280.859 244.909 283.106 247.156 283.855 248.654 285.353 249.403 286.851L274.119 335.533C277.115 340.776 281.608 345.27 286.851 346.768L319.805 358.002C322.052 358.751 323.55 360.249 324.299 361.747L326.546 365.492C328.793 370.734 334.035 373.73 340.027 373.73L349.015 373.73C351.261 373.73 353.508 375.228 355.006 376.726L364.743 390.956C366.99 393.952 369.985 396.199 373.73 396.948L389.458 400.693C393.952 401.442 396.199 406.684 394.701 410.429 394.701 410.429 382.718 422.413 382.718 439.639 382.718 489.07 427.655 503.3 427.655 514.534 427.655 545.242 423.161 587.932 420.915 604.409 401.442 608.903 381.22 611.899 360.249 611.899 219.445 614.146 104.854 499.555 104.854 359.5ZM455.367 595.422C471.844 581.192 499.555 557.225 509.292 546.74 522.024 532.509 524.271 509.292 524.271 509.292 524.271 509.292 576.698 495.061 576.698 456.865 576.698 430.651 524.271 419.417 524.271 419.417 515.283 390.207 471.095 374.479 434.396 374.479 426.157 374.479 396.948 389.458 396.948 389.458L381.969 381.969 381.969 359.5C381.969 355.006 378.973 352.01 374.479 352.01L359.5 352.01 359.5 329.542C359.5 325.048 356.504 322.052 352.01 322.052L344.521 322.052 336.282 327.295C328.793 332.538 318.307 329.542 314.562 321.303 314.562 321.303 307.073 310.818 307.073 306.324 307.073 274.119 344.521 276.366 344.521 276.366L360.998 276.366C364.743 276.366 367.739 278.613 368.488 282.357L372.981 301.081C373.73 304.077 376.726 307.073 380.471 307.073L383.467 307.073C387.211 307.073 390.207 304.826 390.956 301.081L396.199 273.37C396.948 271.123 397.697 268.876 399.195 266.629L420.166 240.416C424.659 235.173 430.651 232.177 437.392 232.177L456.865 232.177C461.358 232.177 464.354 229.181 464.354 224.688L464.354 217.198 462.107 214.951C457.614 210.457 460.609 202.219 467.35 202.219L471.844 202.219C476.337 202.219 479.333 205.215 479.333 209.708 479.333 214.202 482.329 217.198 486.823 217.198L494.312 217.198 498.806 197.725C500.304 190.984 497.308 184.993 492.066 181.248L428.404 143.051C427.655 142.302 426.157 142.302 424.659 142.302L411.927 142.302C403.689 142.302 396.948 149.043 396.948 157.281L396.948 164.771C396.948 169.265 393.952 172.26 389.458 172.26L381.969 172.26 374.479 164.771 352.01 164.771C347.517 164.771 344.521 161.775 344.521 157.281L344.521 138.557C344.521 136.31 345.27 134.064 347.517 132.566L395.45 112.344 402.94 125.076C404.438 126.574 405.935 127.323 408.182 127.323L426.906 127.323C431.4 127.323 434.396 124.327 434.396 119.833L434.396 116.089C538.501 148.294 614.146 244.909 614.146 359.5 614.146 465.852 548.237 557.225 455.367 595.422Z" fill="#F2F2F2" transform="matrix(1 0 0 1.00139 288 10)"/><path d="M451.622 328.044 415.672 316.06C412.676 315.311 410.429 315.311 407.433 316.06L381.969 322.052C379.722 323.55 378.973 326.546 381.969 329.542L416.421 329.542C418.668 329.542 420.166 329.542 421.664 330.291L447.877 340.776C452.371 342.274 456.865 339.278 456.865 334.784 456.865 331.789 454.618 328.793 451.622 328.044Z" fill="#F2F2F2" transform="matrix(1 0 0 1.00139 288 10)"/></g></g></g><text fill="#385723" font-family="Bahnschrift,Bahnschrift_MSFontService,sans-serif" font-weight="300" font-size="107" transform="translate(131.288 401)">Free World Exchange</text></g></svg>