<svg width="720" height="720" xmlns="http://www.w3.org/2000/svg" xmlns:xlink="http://www.w3.org/1999/xlink" overflow="hidden"><defs><clipPath id="clip0"><rect x="289" y="0" width="720" height="720"/></clipPath></defs><g clip-path="url(#clip0)" transform="translate(-289 0)"><path d="M649 75C491.5 75 364 202.5 364 360 364 517.5 491.5 645 649 645 806.5 645 934 517.5 934 360 934 202.5 806.5 75 649 75ZM394 360C394 293.25 419.5 233.25 461.5 187.5 468.25 191.25 475 197.25 476.5 202.5L476.5 249.75C476.5 252.75 477.25 256.5 479.5 258.75L529 322.5 532.75 318.75C535 316.5 535.75 312.75 534.25 309.75L525.25 294.75C521.5 288.75 527.5 281.25 534.25 283.5 536.5 284.25 538 285.75 538.75 287.25L563.5 336C566.5 341.25 571 345.75 576.25 347.25L609.25 358.5C611.5 359.25 613 360.75 613.75 362.25L616 366C618.25 371.25 623.5 374.25 629.5 374.25L638.5 374.25C640.75 374.25 643 375.75 644.5 377.25L654.25 391.5C656.5 394.5 659.5 396.75 663.25 397.5L679 401.25C683.5 402 685.75 407.25 684.25 411 684.25 411 672.25 423 672.25 440.25 672.25 489.75 717.25 504 717.25 515.25 717.25 546 712.75 588.75 710.5 605.25 691 609.75 670.75 612.75 649.75 612.75 508.75 615 394 500.25 394 360ZM745 596.25C761.5 582 789.25 558 799 547.5 811.75 533.25 814 510 814 510 814 510 866.5 495.75 866.5 457.5 866.5 431.25 814 420 814 420 805 390.75 760.75 375 724 375 715.75 375 686.5 390 686.5 390L671.5 382.5 671.5 360C671.5 355.5 668.5 352.5 664 352.5L649 352.5 649 330C649 325.5 646 322.5 641.5 322.5L634 322.5 625.75 327.75C618.25 333 607.75 330 604 321.75 604 321.75 596.5 311.25 596.5 306.75 596.5 274.5 634 276.75 634 276.75L650.5 276.75C654.25 276.75 657.25 279 658 282.75L662.5 301.5C663.25 304.5 666.25 307.5 670 307.5L673 307.5C676.75 307.5 679.75 305.25 680.5 301.5L685.75 273.75C686.5 271.5 687.25 269.25 688.75 267L709.75 240.75C714.25 235.5 720.25 232.5 727 232.5L746.5 232.5C751 232.5 754 229.5 754 225L754 217.5 751.75 215.25C747.25 210.75 750.25 202.5 757 202.5L761.5 202.5C766 202.5 769 205.5 769 210 769 214.5 772 217.5 776.5 217.5L784 217.5 788.5 198C790 191.25 787 185.25 781.75 181.5L718 143.25C717.25 142.5 715.75 142.5 714.25 142.5L701.5 142.5C693.25 142.5 686.5 149.25 686.5 157.5L686.5 165C686.5 169.5 683.5 172.5 679 172.5L671.5 172.5 664 165 641.5 165C637 165 634 162 634 157.5L634 138.75C634 136.5 634.75 134.25 637 132.75L685 112.5 692.5 125.25C694 126.75 695.5 127.5 697.75 127.5L716.5 127.5C721 127.5 724 124.5 724 120L724 116.25C828.25 148.5 904 245.25 904 360 904 466.5 838 558 745 596.25Z" fill="#F2F2F2" fill-opacity="0.34902"/><path d="M741.25 328.5 705.25 316.5C702.25 315.75 700 315.75 697 316.5L671.5 322.5C669.25 324 668.5 327 671.5 330L706 330C708.25 330 709.75 330 711.25 330.75L737.5 341.25C742 342.75 746.5 339.75 746.5 335.25 746.5 332.25 744.25 329.25 741.25 328.5Z" fill="#F2F2F2" fill-opacity="0.34902"/></g></svg>