<svg width="186" height="186" xmlns="http://www.w3.org/2000/svg" xmlns:xlink="http://www.w3.org/1999/xlink" overflow="hidden"><defs><clipPath id="clip0"><rect x="112" y="497" width="186" height="186"/></clipPath></defs><g clip-path="url(#clip0)" transform="translate(-112 -497)"><path d="M259.25 582.25C259.25 586.513 255.762 590 251.5 590 247.238 590 243.75 586.513 243.75 582.25L243.75 574.5 239.875 535.75 255.375 535.75 259.25 574.5 259.25 582.25ZM228.25 582.25C228.25 586.513 224.763 590 220.5 590 216.237 590 212.75 586.513 212.75 582.25L212.75 574.5 210.812 535.75 226.312 535.75 228.25 574.5 228.25 582.25ZM197.25 574.5 197.25 582.25C197.25 586.513 193.763 590 189.5 590 185.237 590 181.75 586.513 181.75 582.25L181.75 574.5 183.688 535.75 199.188 535.75 197.25 574.5ZM189.5 636.5 158.5 636.5 158.5 605.5 189.5 605.5 189.5 636.5ZM150.75 582.25 150.75 574.5 154.625 535.75 170.125 535.75 166.25 574.5 166.25 582.25C166.25 586.513 162.762 590 158.5 590 154.238 590 150.75 586.513 150.75 582.25ZM267 524.125 143 524.125 135.25 574.5 135.25 582.25C135.25 586.513 138.738 590 143 590L143 655.875 208.875 655.875 208.875 605.5 251.5 605.5 251.5 655.875 267 655.875 267 590C271.263 590 274.75 586.513 274.75 582.25L274.75 574.5 267 524.125Z" fill="#C5E0B4"/></g></svg>