<?xml version="1.0" standalone="no"?>
<!DOCTYPE svg PUBLIC "-//W3C//DTD SVG 20010904//EN"
 "http://www.w3.org/TR/2001/REC-SVG-20010904/DTD/svg10.dtd">
<svg version="1.0" xmlns="http://www.w3.org/2000/svg"
 width="1196.000000pt" height="1196.000000pt" viewBox="0 0 1196.000000 1196.000000"
 preserveAspectRatio="xMidYMid meet">
<metadata>
Created by potrace 1.14, written by Peter Selinger 2001-2017
</metadata>
<g transform="translate(0.000000,1196.000000) scale(0.100000,-0.100000)"
fill="#000000" stroke="none">
<path d="M1700 11845 c-434 -60 -814 -248 -1125 -560 -263 -263 -434 -565
-521 -920 -57 -236 -54 30 -54 -4390 0 -4435 -3 -4165 55 -4396 91 -357 257
-651 515 -909 266 -266 553 -431 909 -521 247 -63 -59 -59 4501 -59 4568 0
4262 -4 4506 59 355 93 638 255 900 516 316 315 508 708 564 1155 14 118 14
8192 0 8310 -35 280 -135 568 -278 797 -80 130 -168 239 -287 358 -260 261
-543 423 -899 516 -245 63 64 59 -4519 58 -3368 -1 -4190 -4 -4267 -14z m5316
-2766 c435 -43 718 -223 821 -522 31 -90 42 -259 23 -374 -85 -529 -611 -1144
-1360 -1589 -155 -91 -465 -240 -630 -302 -434 -162 -809 -229 -1182 -210
-420 21 -725 179 -853 441 -45 93 -75 218 -75 311 0 146 56 351 144 527 410
819 1613 1597 2643 1708 207 23 318 25 469 10z m-931 -4174 c587 -26 1203
-218 1568 -488 380 -280 512 -641 358 -974 -113 -242 -368 -460 -728 -622
-459 -207 -1040 -306 -1648 -280 -1049 46 -1899 474 -2041 1029 -21 84 -21
226 0 310 75 292 349 558 773 749 357 161 798 259 1259 280 164 8 203 7 459
-4z m-2142 -1903 c450 -336 1119 -522 1882 -522 882 0 1660 257 2058 680 95
101 90 100 131 8 59 -134 75 -305 41 -438 -140 -552 -996 -983 -2040 -1028
-861 -38 -1658 178 -2117 573 -148 126 -264 302 -303 455 -34 133 -18 304 41
438 41 92 36 93 131 -8 47 -50 126 -121 176 -158z"/>
<path d="M6154 8209 c-385 -286 -703 -524 -708 -529 -5 -5 -1 -18 8 -31 9 -14
12 -27 7 -33 -6 -7 57 -170 164 -431 96 -231 178 -427 183 -435 8 -12 14 -12
51 0 23 7 44 17 46 21 3 4 -74 199 -171 434 -97 234 -175 427 -173 429 2 2
308 229 679 506 371 276 677 504 679 506 4 4 -52 84 -60 84 -4 0 -321 -234
-705 -521z"/>
</g>
</svg>
