<?xml version="1.0" standalone="no"?>
<!DOCTYPE svg PUBLIC "-//W3C//DTD SVG 20010904//EN"
 "http://www.w3.org/TR/2001/REC-SVG-20010904/DTD/svg10.dtd">
<svg version="1.0" xmlns="http://www.w3.org/2000/svg"
 width="91.000000pt" height="91.000000pt" viewBox="0 0 91.000000 91.000000"
 preserveAspectRatio="xMidYMid meet">
<metadata>
Created by potrace 1.14, written by Peter Selinger 2001-2017
</metadata>
<g transform="translate(0.000000,91.000000) scale(0.100000,-0.100000)"
fill="#000000" stroke="none">
<path d="M90 884 c-19 -8 -46 -31 -60 -51 l-25 -36 -3 -325 c-3 -312 -2 -326
18 -367 16 -32 33 -49 64 -64 40 -20 60 -21 371 -21 311 0 331 1 371 21 31 15
48 32 63 63 20 40 21 60 21 356 0 296 -1 316 -21 356 -15 31 -32 48 -63 63
-40 20 -59 21 -372 20 -265 0 -336 -3 -364 -15z"/>
</g>
</svg>
